<?xml version="1.0" encoding="utf-8"?>
<!-- Generator: Adobe Illustrator 18.1.1, SVG Export Plug-In . SVG Version: 6.00 Build 0)  -->
<!DOCTYPE svg PUBLIC "-//W3C//DTD SVG 1.1//EN" "http://www.w3.org/Graphics/SVG/1.1/DTD/svg11.dtd">
<svg version="1.1" id="lc" xmlns="http://www.w3.org/2000/svg" xmlns:xlink="http://www.w3.org/1999/xlink" x="0px" y="0px"
	 viewBox="0 193.4 512.1 124.9" enable-background="new 0 193.4 512.1 124.9" xml:space="preserve">
<path d="M8.4,195c0,0,0.3,5.8,0.6,14.4c0.2,4.3,0.3,9.4,0.5,14.8c0.1,2.7,0.2,5.5,0.3,8.4c0.1,2.8,0.1,5.7,0.2,8.6
	c0,1.4,0.1,2.9,0.1,4.3c0,1.4,0.1,2.9,0.1,4.3c0.1,2.8,0.1,5.7,0.1,8.4c0,2.7,0,5.3,0.1,7.8c0,2.5,0,4.8,0,7c0,2.2-0.1,4.1-0.1,5.9
	c0,0.9,0,1.7-0.1,2.5c0,0.8-0.1,1.5-0.1,2.1c-0.1,2.5-0.1,4-0.1,4c0,0.5-0.4,0.8-0.9,0.8c-0.4,0-0.8-0.4-0.8-0.9v0c0,0,0-1.4,0.1-4
	c0-0.6,0-1.3,0-2.1c0-0.8,0-1.6,0-2.4c0-1.8,0-3.7,0-5.9c0-2.2,0-4.5-0.1-7c-0.1-2.5-0.1-5.1-0.2-7.8c-0.1-2.7-0.1-5.5-0.3-8.3
	c-0.1-1.4-0.1-2.8-0.1-4.3c-0.1-1.4-0.1-2.9-0.2-4.3c-0.1-2.9-0.3-5.8-0.4-8.6c-0.1-2.8-0.3-5.6-0.4-8.3c-0.3-5.4-0.5-10.4-0.8-14.8
	c-0.5-8.6-0.8-14.4-0.8-14.4c-0.1-0.9,0.6-1.6,1.5-1.7C7.5,193.5,8.3,194.1,8.4,195C8.4,195,8.4,195,8.4,195z"/>
<path d="M29,195.3c0,0,0.1,0.3,0.3,0.7s0.4,1.1,0.7,2c0.6,1.8,1.5,4.4,2.5,7.7c1,3.3,2.2,7.4,3.5,12.1c1.3,4.7,2.6,10,3.7,15.9
	c0.6,2.9,1.1,6,1.6,9.2c0.5,3.2,0.9,6.5,1.2,9.9c0.3,3.4,0.4,7,0.3,10.6l0,0.7v0.2v0.1v0.1c0,0.1,0,0.3-0.1,0.5
	c0,0.1-0.1,0.2-0.2,0.4c-0.1,0.1-0.3,0.3-0.5,0.4c-0.3,0.1-0.5,0.1-0.7,0.1c-0.2,0-0.3-0.1-0.4-0.1c-0.2-0.1-0.3-0.1-0.4-0.2
	c-0.2-0.1-0.3-0.2-0.4-0.3c-0.2-0.2-0.4-0.4-0.6-0.6c-0.6-0.7-1.2-1.4-1.8-2.1c-1.2-1.4-2.3-2.8-3.6-4.1c-2.5-2.6-5.3-5-8.5-7
	c-3.1-1.9-6.7-3.4-10.3-4.2c-0.9-0.2-1.9-0.4-2.8-0.5l-0.7-0.1l-0.7-0.1c-0.5,0-0.9-0.1-1.4-0.1c-0.9,0-1.9,0-2.8,0.1
	c-0.4,0.1-0.9,0.1-1.3,0.2c-0.4,0.1-0.8,0.2-1.1,0.4c-0.3,0.2-0.6,0.3-0.9,0.6c-0.2,0.2-0.4,0.4-0.4,0.6C3,248.8,3,249.1,3,249.4
	c0,0.3,0.1,0.6,0.3,1c0.3,0.7,0.8,1.4,1.3,2.1c0.6,0.6,1.2,1.3,1.9,1.8c1.4,1.1,3.1,1.9,4.7,2.4c0.8,0.3,1.7,0.4,2.6,0.6
	c0.4,0.1,0.9,0.1,1.3,0.1h0.4h0.3c0.2,0,0.4,0,0.7,0c1.8-0.1,3.7-0.4,5.5-0.9c1.8-0.4,3.7-1,5.5-1.6c3.6-1.2,7.1-2.7,10.4-4.5
	c3.3-1.7,6.4-3.7,9.2-5.9c1.4-1.1,2.7-2.3,3.8-3.6c1.1-1.3,2-2.7,2.6-4.1c0.1-0.4,0.3-0.7,0.4-1.1c0-0.2,0.1-0.4,0.1-0.5
	c0-0.2,0.1-0.4,0.1-0.6c0.1-0.4,0.1-0.8,0.1-1.2c0-0.4,0.1-0.8,0-1.1c0-0.8-0.1-1.4-0.3-2c-0.1-0.3-0.3-0.5-0.4-0.7
	c-0.1-0.2-0.3-0.3-0.5-0.4c-0.3-0.1-0.8-0.1-1.4,0.1c-0.5,0.2-1.1,0.6-1.6,1.1c-1,0.9-1.8,2.2-2.3,3.6c-0.6,1.3-0.9,2.8-1.1,4.2
	c-0.2,1.5-0.3,3-0.3,4.4c-0.1,2.8,0.3,5.6,1.1,7.9c0.4,1.2,1,2.2,1.7,3c0.7,0.8,1.6,1.3,2.4,1.3c0.2,0,0.4,0,0.6,0
	c0.1,0,0.2,0,0.3-0.1h0c0,0,0,0,0,0l0.1,0l0.2-0.1c0.4-0.1,0.9-0.4,1.4-0.6c0.9-0.5,1.8-1,2.6-1.6c1.6-1.2,3-2.5,4-3.7
	c2.2-2.5,3.3-4.9,3.8-6.6c0.3-0.8,0.4-1.5,0.4-1.9c0.1-0.4,0.1-0.7,0.1-0.7v-0.1c0.1-0.4,0.5-0.8,0.9-0.7c0.4,0.1,0.8,0.5,0.7,0.9
	c0,0,0,0.3-0.1,0.8c-0.1,0.5-0.2,1.3-0.4,2.2c-0.5,1.9-1.7,4.6-4,7.4c-1.1,1.4-2.5,2.8-4.3,4.2c-0.9,0.7-1.8,1.3-2.9,1.9
	c-0.5,0.3-1.1,0.6-1.8,0.8l-0.2,0.1l-0.1,0l-0.1,0l-0.1,0c-0.2,0.1-0.4,0.1-0.6,0.1c-0.4,0.1-0.8,0.1-1.1,0.1
	c-0.8,0-1.6-0.3-2.2-0.6c-0.7-0.4-1.3-0.8-1.8-1.4c-1-1.1-1.8-2.4-2.3-3.8c-1.1-2.8-1.4-5.8-1.4-8.8c0-1.5,0.1-3.1,0.3-4.7
	c0.2-1.6,0.6-3.3,1.2-4.9c0.6-1.6,1.5-3.2,2.9-4.6c0.7-0.7,1.5-1.3,2.5-1.7c0.5-0.2,1.1-0.4,1.7-0.4c0.6,0,1.3,0.1,1.9,0.3
	c0.6,0.3,1.2,0.7,1.6,1.1c0.4,0.5,0.7,1,0.9,1.5c0.4,1.1,0.6,2.1,0.6,3.1c0,0.5,0,1,0,1.5c0,0.5-0.1,0.9-0.2,1.4
	c0,0.3-0.1,0.4-0.1,0.7c-0.1,0.3-0.1,0.5-0.2,0.8c-0.1,0.5-0.3,1-0.5,1.4c-0.8,1.9-1.8,3.5-3.1,5c-1.3,1.5-2.6,2.8-4.1,4.1
	c-3,2.5-6.3,4.6-9.7,6.4c-1.7,0.9-3.5,1.8-5.3,2.6c-1.8,0.8-3.7,1.5-5.6,2.1c-1.9,0.6-3.8,1.2-5.8,1.6s-4,0.8-6.1,0.9
	c-0.3,0-0.5,0-0.8,0h-0.4h-0.4c-0.6,0-1.1-0.1-1.6-0.1c-1.1-0.1-2.2-0.4-3.2-0.8c-2.1-0.7-4-1.7-5.7-3.1c-0.9-0.7-1.6-1.4-2.4-2.3
	c-0.7-0.9-1.3-1.8-1.8-3c-0.2-0.6-0.4-1.2-0.4-1.9c-0.1-0.7,0.1-1.4,0.3-2.1c0.3-0.7,0.8-1.3,1.3-1.7c0.5-0.4,1.1-0.8,1.6-1
	s1.1-0.4,1.7-0.5s1.1-0.2,1.6-0.2c1.1-0.1,2.1-0.1,3.1,0c0.5,0,1,0.1,1.5,0.1l0.8,0.1l0.7,0.1c1,0.2,2,0.4,3,0.6
	c2,0.5,3.9,1.1,5.7,1.9c1.8,0.8,3.6,1.7,5.3,2.8c3.3,2.1,6.3,4.6,9,7.3c1.3,1.4,2.6,2.8,3.8,4.2c0.6,0.7,1.2,1.4,1.7,2
	c0.1,0.1,0.3,0.3,0.4,0.4c0.1,0.1,0.1,0.1,0.1,0.1s0,0-0.1-0.1c-0.1,0-0.1-0.1-0.3-0.1c-0.1,0-0.3,0-0.5,0.1s-0.3,0.2-0.4,0.3
	c-0.1,0.1-0.1,0.2-0.1,0.2c0,0.1,0,0.1,0,0.1c0,0,0,0,0,0s0,0,0-0.1V264l0-0.7c0.1-3.5-0.1-7-0.4-10.3c-0.6-6.7-1.7-13-3-18.8
	c-1.3-5.8-2.6-11-4-15.6c-1.3-4.6-2.6-8.6-3.7-11.9s-2-5.8-2.7-7.5c-0.3-0.9-0.6-1.5-0.8-1.9c-0.2-0.4-0.3-0.7-0.3-0.7v0
	c-0.4-0.9,0.1-2,1-2.4c0.9-0.4,2,0.1,2.4,1C29,195.3,29,195.3,29,195.3z"/>
<path d="M66.3,198.8c0,0,0,1.1,0,3c0,1.9,0,4.6,0,7.9c0,6.6,0.1,15.3,0.6,24.1c0.1,1.1,0.1,2.2,0.2,3.3c0.1,1.1,0.1,2.2,0.2,3.2
	c0.1,2.1,0.3,4.3,0.5,6.3c0.2,2,0.4,4,0.6,5.9c0.1,0.9,0.2,1.8,0.3,2.7c0.1,0.9,0.2,1.7,0.3,2.5c0.1,0.8,0.3,1.6,0.4,2.3
	c0.1,0.7,0.3,1.4,0.4,2.1s0.3,1.3,0.4,1.8c0.1,0.3,0.1,0.6,0.2,0.8c0.1,0.3,0.1,0.5,0.2,0.7c0.1,0.4,0.2,0.9,0.3,1.2
	c0.1,0.4,0.2,0.6,0.3,0.9c0.1,0.5,0.2,0.7,0.2,0.7v0.1c0.1,0.4-0.1,0.9-0.6,1c-0.4,0.1-0.9-0.1-1-0.6c0,0-0.1-0.3-0.3-0.8
	c-0.1-0.3-0.2-0.6-0.3-0.9c-0.1-0.4-0.2-0.8-0.3-1.3c-0.1-0.2-0.1-0.5-0.2-0.8c-0.1-0.3-0.1-0.5-0.2-0.8c-0.1-0.6-0.3-1.2-0.4-1.8
	c-0.1-0.7-0.3-1.4-0.4-2.1s-0.3-1.5-0.4-2.3c-0.1-0.8-0.3-1.7-0.4-2.6c-0.1-0.9-0.2-1.8-0.4-2.7c-0.2-1.9-0.4-3.9-0.6-5.9
	c-0.2-2.1-0.4-4.2-0.5-6.3c-0.1-1.1-0.2-2.2-0.2-3.3c-0.1-1.1-0.1-2.2-0.2-3.3c-0.5-8.8-0.8-17.6-0.8-24.1c-0.1-3.3-0.1-6-0.1-8
	c0-1.9,0-3,0-3c0-0.7,0.6-1.3,1.3-1.3S66.3,198.1,66.3,198.8C66.3,198.7,66.3,198.7,66.3,198.8L66.3,198.8z"/>
<path d="M77.5,201c0,0,0,1.1-0.1,3.1c0,2-0.1,4.9-0.1,8.3c0,6.9,0,16.1,0.3,25.2c0.1,2.3,0.2,4.6,0.3,6.8c0.1,2.3,0.3,4.5,0.4,6.6
	c0.2,2.1,0.3,4.2,0.5,6.2c0.2,1.9,0.4,3.8,0.7,5.5c0.3,1.7,0.5,3.2,0.9,4.5c0.1,0.3,0.2,0.6,0.2,1c0,0,0-0.1,0,0v0v0l0,0.1v0
	c0,0,0,0,0,0v0c0,0,0,0-0.1-0.1c0-0.1-0.1-0.1-0.1-0.1l0,0c0,0-0.1,0-0.1-0.1c-0.1,0-0.1-0.1-0.2-0.1c-0.1,0-0.2,0-0.3,0
	c0,0-0.1,0-0.1,0h0c0,0-0.1,0-0.1,0c0,0-0.1,0-0.1,0h0l0,0l0,0l0-0.1l0.1-0.1c0.1-0.2,0.3-0.4,0.4-0.7s0.2-0.5,0.3-0.7
	c0.4-0.9,0.8-1.7,1.2-2.2c0.2-0.3,0.4-0.4,0.6-0.6c0.1-0.1,0.2-0.1,0.2-0.1c0.1,0,0.1-0.1,0.1-0.1c0.4-0.3,0.9-0.1,1.1,0.2
	c0.3,0.4,0.2,0.8-0.2,1.1l-0.1,0.1c0,0,0,0-0.1,0.1c-0.1,0-0.1,0.1-0.3,0.3c-0.3,0.3-0.6,1-1,1.9c-0.1,0.2-0.2,0.5-0.3,0.7
	c-0.1,0.3-0.3,0.5-0.4,0.9L81,269l-0.1,0.1c-0.1,0.1-0.1,0.1-0.1,0.2c0,0-0.1,0.1-0.1,0.1l-0.1,0.1c0,0-0.1,0.1-0.1,0.1
	c0,0-0.1,0.1-0.1,0.1l-0.1,0c0,0-0.1,0-0.1,0c-0.1,0-0.3,0-0.4,0c-0.1,0-0.2-0.1-0.2-0.1c0,0-0.1,0-0.1-0.1s0,0-0.1-0.1
	c-0.1-0.1-0.1-0.1-0.2-0.2c-0.1-0.1-0.1-0.1-0.1-0.2l0-0.1l0-0.1v0l0-0.1l0-0.1c-0.1-0.3-0.2-0.7-0.3-1c-0.4-1.4-0.6-3-0.9-4.7
	c-0.3-1.7-0.5-3.6-0.8-5.5c-0.2-2-0.4-4.1-0.6-6.2c-0.2-2.1-0.3-4.4-0.5-6.7c-0.1-2.3-0.3-4.6-0.4-6.8c-0.4-9.2-0.6-18.4-0.6-25.3
	c0-3.5,0-6.3,0-8.4c0-2,0-3.2,0-3.2c0-0.7,0.6-1.3,1.3-1.3C76.9,199.6,77.5,200.2,77.5,201C77.5,201,77.5,201,77.5,201L77.5,201z"/>
<path d="M91.8,230.2c0,0,0.1-0.3,0.4-0.8c0.1-0.1,0.2-0.3,0.3-0.4c0.1-0.2,0.2-0.3,0.3-0.5c0.1-0.2,0.3-0.4,0.4-0.6
	c0.2-0.2,0.3-0.4,0.5-0.6c0.2-0.2,0.4-0.4,0.6-0.7c0.2-0.3,0.4-0.5,0.7-0.7c0.5-0.5,1.1-1,1.8-1.5c0.2-0.1,0.4-0.3,0.6-0.3
	c0.2-0.1,0.4-0.2,0.7-0.3c0.5-0.2,1-0.3,1.6-0.3c0.2,0,0.3,0,0.5,0c0.2,0,0.3,0.1,0.5,0.1c0.2,0,0.3,0.1,0.5,0.1l0.2,0.1
	c0.1,0,0.1,0.1,0.2,0.1c0.6,0.3,1.1,0.7,1.5,1.2c0.8,0.9,1.3,1.9,1.6,3c0.3,1.1,0.6,2.1,0.8,3.2c0.3,2.2,0.4,4.5,0.3,6.9
	c-0.1,2.4-0.4,4.8-0.8,7.3c-0.5,2.4-1.1,4.9-2.2,7.3c-0.6,1.2-1.3,2.4-2.3,3.4c-0.6,0.5-1.3,1-2.1,1.2c-0.2,0.1-0.4,0.1-0.7,0.1
	c-0.2,0-0.4,0-0.7,0c-0.2,0-0.4-0.1-0.6-0.1c-0.2-0.1-0.4-0.1-0.6-0.2l-0.1,0c0,0-0.1,0-0.1,0h0l-0.1-0.1l-0.2-0.1l-0.4-0.2
	c-0.3-0.2-0.6-0.3-0.9-0.5c-0.3-0.2-0.5-0.4-0.8-0.6c-0.3-0.2-0.5-0.4-0.8-0.6c-1-0.8-1.9-1.8-2.6-2.8c-1.4-2-2.3-4.3-2.8-6.5
	c-0.5-2.2-0.6-4.3-0.6-6.2c0-1.9,0.3-3.6,0.6-5.2c0-0.1,0-0.2,0.1-0.3l0-0.1l0-0.1l0-0.1c0.1-0.2,0.1-0.4,0.1-0.5
	c0.1-0.4,0.2-0.7,0.3-1.1c0.2-0.6,0.5-1.2,0.8-1.8c0.5-1,1.1-1.8,1.4-2.3c0.4-0.5,0.6-0.7,0.6-0.8c0.3-0.3,0.9-0.3,1.2,0
	c0.3,0.3,0.3,0.9,0,1.2c0,0-0.2,0.2-0.5,0.6c-0.3,0.4-0.8,1.1-1.2,2c-0.2,0.4-0.4,1-0.6,1.6c-0.1,0.3-0.2,0.6-0.3,0.9
	c0,0.2-0.1,0.3-0.1,0.5l0,0.1l0,0.1v0c0,0,0,0,0,0v0c0,0.1,0,0.2-0.1,0.3c-0.3,1.4-0.4,3.1-0.4,4.8c0,1.8,0.2,3.7,0.7,5.6
	c0.5,1.9,1.3,3.9,2.6,5.6c0.6,0.9,1.4,1.6,2.2,2.3c0.2,0.2,0.4,0.3,0.6,0.5c0.2,0.1,0.4,0.3,0.7,0.4c0.2,0.1,0.4,0.3,0.7,0.4
	l0.4,0.2l0.2,0.1l0.1,0.1h0c0,0-0.1,0,0,0h0c0.4,0.2,0.7,0.2,1,0.1c0.3-0.1,0.6-0.3,1-0.6c0.7-0.7,1.2-1.6,1.7-2.7
	c0.9-2.1,1.5-4.4,1.9-6.7c0.4-2.3,0.7-4.6,0.8-6.8c0.1-2.2,0-4.4-0.3-6.4c-0.1-1-0.4-1.9-0.6-2.8s-0.6-1.6-1.1-2.1
	c-0.2-0.2-0.4-0.4-0.6-0.5c-0.2-0.1-0.4-0.1-0.6-0.1c-0.4,0-1,0.2-1.6,0.5c-0.1,0.1-0.3,0.2-0.4,0.3c-0.1,0.1-0.3,0.2-0.4,0.3
	c-0.3,0.2-0.5,0.4-0.7,0.6c-0.2,0.2-0.4,0.4-0.7,0.6c-0.2,0.2-0.4,0.4-0.6,0.5c-0.4,0.4-0.7,0.7-1,0.9s-0.5,0.5-0.7,0.8
	c-0.4,0.4-0.6,0.6-0.6,0.6c-0.3,0.3-0.9,0.3-1.2,0C91.6,230.9,91.6,230.5,91.8,230.2z"/>
<path d="M125.9,261.2c0,0,0,0.1,0,0.2c0,0.1,0,0.1,0,0.2c0,0.1,0,0.1,0,0.2c0,0,0,0.1,0,0.1c0,0.1,0,0.1,0,0.2
	c0,0.1,0.1,0.3,0.1,0.4c0.1,0.3,0.1,0.6,0.2,1c0.1,0.4,0.1,0.8,0.2,1.2c0.1,0.4,0.1,0.9,0.2,1.3c0.1,0.5,0.1,0.9,0.1,1.5
	c0,0.3,0,0.5,0,0.8s0,0.5,0,0.8c0,0.1,0,0.3,0,0.4l0,0.4c0,0.3,0,0.5-0.1,0.8c-0.1,0.5-0.1,1-0.2,1.5c-0.1,0.2-0.1,0.5-0.2,0.7
	c-0.1,0.2-0.1,0.4-0.2,0.7c-0.1,0.2-0.1,0.4-0.2,0.6c-0.1,0.2-0.1,0.4-0.2,0.6c-0.1,0.4-0.3,0.7-0.4,1c-0.1,0.3-0.3,0.5-0.4,0.7
	c-0.2,0.4-0.3,0.6-0.3,0.6c-0.2,0.4-0.7,0.6-1.1,0.3c-0.4-0.2-0.5-0.7-0.4-1l0-0.1c0,0,0.1-0.2,0.2-0.6c0.1-0.2,0.2-0.4,0.3-0.6
	c0.1-0.3,0.2-0.6,0.3-0.9c0.1-0.2,0.1-0.3,0.1-0.5c0-0.2,0.1-0.4,0.1-0.5c0.1-0.2,0.1-0.4,0.1-0.6c0-0.2,0-0.4,0.1-0.6
	c0-0.4,0-0.8,0-1.3c0-0.2,0-0.4,0-0.7l0-0.3c0-0.1,0-0.2,0-0.3c0-0.2-0.1-0.4-0.1-0.7c0-0.2-0.1-0.4-0.1-0.7
	c-0.1-0.4-0.2-0.9-0.3-1.3c-0.1-0.4-0.2-0.8-0.3-1.2c-0.1-0.4-0.2-0.7-0.3-1.1c-0.1-0.3-0.2-0.6-0.3-0.9c-0.1-0.1-0.1-0.3-0.1-0.4
	c0-0.1,0-0.1-0.1-0.2c0-0.1-0.1-0.1-0.1-0.2c0-0.1-0.1-0.3-0.1-0.4c0-0.1,0-0.1-0.1-0.2c0-0.1-0.1-0.2-0.1-0.2
	c-0.2-0.9,0.3-1.9,1.3-2.1c0.9-0.2,1.9,0.3,2.1,1.3c0,0.1,0,0.1,0,0.2L125.9,261.2z"/>
<path d="M147.3,206.4c0,0,0,0.1,0.1,0.2c0,0,0,0.1,0.1,0.1c0,0,0,0.1,0.1,0.1c0.1,0.1,0.1,0.3,0.2,0.4c0.2,0.6,0.4,1.3,0.6,2.3
	c0.3,1.9,0.5,4.4,0.5,7.4c0.1,6-0.2,13.8-0.2,21.7c0,3.9,0,7.8,0.2,11.5c0.2,3.6,0.5,7,0.9,9.9c0.4,2.9,1,5.2,1.6,6.8
	c0.1,0.4,0.3,0.8,0.4,1c0.1,0.3,0.2,0.6,0.3,0.8c0.2,0.4,0.3,0.6,0.3,0.6l0,0c0.2,0.4,0,0.9-0.4,1.1c-0.4,0.2-0.9,0-1.1-0.4
	c0,0-0.1-0.2-0.3-0.7c-0.1-0.2-0.2-0.5-0.4-0.8c-0.1-0.3-0.3-0.7-0.4-1.1c-0.6-1.7-1.3-4.1-1.9-7c-0.6-3-1-6.4-1.3-10.1
	s-0.5-7.7-0.6-11.6c-0.2-7.9-0.2-15.8-0.5-21.6c-0.1-2.9-0.4-5.3-0.7-6.8c-0.2-0.8-0.3-1.3-0.4-1.6c0,0,0-0.1-0.1-0.1
	c0,0,0-0.1-0.1-0.1c0,0,0-0.1-0.1-0.1c-0.1-0.1-0.1-0.2-0.1-0.2l0,0c-0.5-0.9-0.2-2,0.7-2.5S146.8,205.5,147.3,206.4
	C147.3,206.3,147.3,206.3,147.3,206.4z"/>
<path d="M163.9,209.7C163.9,209.7,163.9,209.7,163.9,209.7C163.9,209.7,163.9,209.8,163.9,209.7C164,209.8,164,209.7,163.9,209.7
	C163.9,209.7,163.9,209.7,163.9,209.7C163.9,209.7,163.9,209.7,163.9,209.7c0.1,0.1,0.1,0.1,0.1,0.2c0.2,0.3,0.4,0.6,0.8,1.1
	c0.7,0.9,1.5,2.3,2.1,3.7c0.2,0.4,0.3,0.7,0.4,1.1c0.1,0.4,0.3,0.8,0.3,1.1c0.1,0.4,0.2,0.7,0.2,1.1c0,0.2,0.1,0.3,0.1,0.5
	s0,0.3,0,0.5c0,0.3,0,0.6,0,0.9c0,0.3-0.1,0.5-0.1,0.7c-0.1,0.4-0.1,0.6-0.1,0.6c-0.1,0.4-0.6,0.7-1,0.6c-0.4-0.1-0.7-0.5-0.6-0.9
	v-0.1c0,0,0-0.2,0-0.4c0-0.1,0-0.3,0-0.5c0-0.2,0-0.4-0.1-0.6c0-0.1-0.1-0.3-0.1-0.4c0-0.1-0.1-0.3-0.1-0.4
	c-0.1-0.3-0.2-0.6-0.3-0.8c-0.1-0.3-0.3-0.6-0.4-0.9c-0.1-0.3-0.3-0.6-0.5-0.9c-0.7-1.2-1.6-2.3-2.3-3c-0.4-0.4-0.7-0.8-0.9-1
	c-0.1-0.1-0.1-0.1-0.2-0.2c0,0-0.1-0.1-0.1-0.1c0-0.1-0.1-0.1-0.1-0.2c-0.1-0.1-0.1-0.2-0.1-0.2c-0.4-0.7-0.2-1.6,0.5-2.1
	s1.6-0.2,2.1,0.5C163.8,209.5,163.8,209.6,163.9,209.7L163.9,209.7z"/>
<path d="M167.6,269.5C167.6,269.5,167.6,269.5,167.6,269.5C167.7,269.4,167.7,269.4,167.6,269.5
	C167.7,269.4,167.6,269.4,167.6,269.5C167.6,269.4,167.6,269.4,167.6,269.5c0.1-0.1,0.2-0.3,0.4-0.6c0.3-0.6,0.7-1.6,1.1-2.9
	c0.4-1.3,0.9-2.9,1.5-4.7c0.6-1.8,1.2-3.9,1.9-6.2c0.4-1.1,0.8-2.3,1.2-3.5c0.2-0.6,0.4-1.3,0.8-1.9c0.1-0.3,0.3-0.7,0.6-1.1
	l0.1-0.2c0-0.1,0.1-0.1,0.1-0.2c0.1-0.1,0.2-0.3,0.5-0.4c0,0,0.1-0.1,0.1-0.1c0.1,0,0.1-0.1,0.2-0.1c0.1,0,0.1,0,0.2-0.1
	c0.6-0.1,0.2,0,0.3,0h0c-0.1,0,0.2,0,0.3,0c0.1,0,0.3,0.1,0.4,0.1c0.1,0.1,0.2,0.1,0.3,0.1c0.1,0.1,0.2,0.2,0.3,0.3
	c0.1,0.1,0.1,0.1,0.1,0.2l0.1,0.1c0,0,0,0.1,0.1,0.1l0.1,0.1c0.2,0.3,0.2,0.6,0.3,0.8s0.1,0.4,0.1,0.6c0.1,0.4,0.1,0.8,0.1,1.1
	c0.1,0.7,0.1,1.4,0.1,2.2c0.1,1.4,0.1,2.9,0.2,4.4c0.1,1.5,0.1,3,0.3,4.4c0.1,0.7,0.1,1.4,0.3,2.2c0.1,0.4,0.1,0.7,0.2,1
	c0.1,0.3,0.2,0.6,0.3,0.9c0.1,0.1,0.1,0.2,0.1,0.3c0,0.1,0,0-0.1-0.1c0,0,0,0-0.1,0c0,0,0,0-0.1,0c-0.1,0-0.1,0-0.1-0.1
	c-0.1,0-0.1,0-0.1,0s-0.1,0-0.1,0c0,0-0.3,0-0.1,0h0h0.1c0,0,0.1,0,0,0h-0.1c0,0-0.1,0-0.1,0c0,0-0.1,0-0.1,0h0l0,0
	c0.1,0,0.2-0.2,0.4-0.4c0.2-0.2,0.4-0.5,0.5-0.8c0.7-1.2,1.3-2.7,1.9-4.1c0.6-1.4,1.2-2.9,1.8-4.4c0.6-1.5,1.3-3,2.1-4.4
	c0.4-0.7,0.8-1.4,1.4-2.2c0.3-0.4,0.6-0.7,0.9-1.1c0.4-0.4,0.8-0.7,1.3-1c0.1-0.1,0.3-0.1,0.4-0.2c0.2-0.1,0.3-0.1,0.5-0.2
	c0.2-0.1,0.3-0.1,0.5-0.1l0.1,0h0.1c0,0,0.3,0,0.2,0h0.1h0c0,0,0,0,0.1,0s0.1,0,0.2,0c0.1,0,0.3,0,0.4,0.1c0.2,0.1,0.4,0.1,0.6,0.2
	c0.1,0,0.2,0.1,0.3,0.1c0.1,0.1,0.2,0.1,0.2,0.1c0.2,0.1,0.3,0.2,0.4,0.3c0.5,0.4,0.8,0.8,1.1,1.2c0.3,0.4,0.5,0.8,0.7,1.1
	c0.8,1.5,1.3,2.9,1.9,4.2c0.5,1.3,1,2.6,1.5,3.9c1,2.5,2,4.7,3.1,6.5c1.1,1.8,2.5,3.1,3.8,3.8c0.3,0.2,0.6,0.3,0.9,0.4
	c0.3,0.1,0.6,0.1,0.9,0.2c0.1,0,0.3,0,0.4,0c0,0-0.2,0-0.1,0h0h0h0.1h0.1c0,0,0,0,0,0l0,0h0h0c0.1,0,0.3,0,0.4-0.1
	c0.3-0.2,0.8-0.4,1.1-0.7c0.3-0.3,0.6-0.6,0.9-0.8c0.5-0.5,0.8-0.8,0.8-0.8c0.2-0.4,0.7-0.6,1.1-0.5c0.4,0.2,0.6,0.7,0.5,1.1
	c0,0,0,0.1,0,0.4s-0.1,0.5-0.2,0.9c-0.1,0.4-0.3,0.9-0.6,1.5s-0.7,1.2-1.5,1.9c-0.4,0.3-0.9,0.6-1.6,0.8c-0.1,0-0.1,0.1-0.3,0.1
	c-0.1,0-0.2,0-0.3,0.1l-0.1,0h-0.1h-0.1h0h0c0.1,0-0.1,0-0.1,0c-0.3,0-0.5,0-0.8,0c-0.5,0-1.1-0.1-1.6-0.3c-0.6-0.2-1.1-0.4-1.6-0.6
	c-1.1-0.5-2.1-1.3-3-2.2c-0.9-0.9-1.6-1.9-2.3-3c-1.4-2.2-2.4-4.6-3.5-7.2c-0.5-1.3-1-2.6-1.5-3.9c-0.5-1.3-1-2.6-1.6-3.8
	c-0.1-0.3-0.3-0.5-0.5-0.8c-0.1-0.2-0.3-0.4-0.4-0.5c0,0-0.1,0-0.1,0l0,0l0,0c0,0,0,0,0,0c0,0,0.1,0,0.1,0c0,0,0.1,0,0.1,0
	c0,0,0,0,0,0h0h-0.1c-0.1,0,0.1,0,0.1,0l0,0l0,0h0c0,0,0,0-0.1,0c0,0-0.1,0-0.1,0c-0.3,0.1-0.7,0.6-1.1,1.1
	c-0.4,0.5-0.8,1.1-1.1,1.8c-0.7,1.3-1.3,2.6-1.9,4.1c-0.6,1.4-1.2,2.9-1.8,4.3c-0.6,1.5-1.3,3-2.1,4.5c-0.2,0.4-0.5,0.8-0.8,1.1
	c-0.3,0.4-0.6,0.8-1.3,1.2c-0.1,0.1-0.2,0.1-0.3,0.1c-0.1,0.1-0.2,0.1-0.3,0.1c0,0-0.1,0.1-0.2,0.1c-0.1,0-0.2,0.1-0.2,0.1l-0.1,0
	c-0.1,0,0,0-0.1,0h-0.1h0c0.1,0-0.2,0-0.2,0c-0.1,0-0.1,0-0.2,0c-0.1,0-0.3,0-0.4-0.1c-0.1,0-0.3-0.1-0.4-0.1
	c-0.1,0-0.1-0.1-0.2-0.1l-0.2-0.1c-0.4-0.3-0.7-0.6-0.9-0.9c-0.2-0.3-0.3-0.6-0.4-0.8c-0.2-0.5-0.3-0.9-0.4-1.4
	c-0.1-0.4-0.2-0.9-0.2-1.3c-0.1-0.8-0.2-1.6-0.2-2.4c-0.1-1.6-0.1-3.1-0.1-4.6c0-1.5,0-2.9,0-4.3c0-0.7,0-1.4-0.1-2.1
	c0-0.3,0-0.6-0.1-0.9c0-0.1,0-0.3-0.1-0.4c0-0.1-0.1-0.2,0-0.2c0,0,0,0,0,0c0,0,0,0,0,0c0,0,0,0,0,0.1c0,0,0.1,0.1,0.1,0.1
	c0.1,0.1,0.1,0.1,0.2,0.2c0,0,0.1,0.1,0.2,0.1c0.1,0.1,0.2,0.1,0.3,0.1c0.1,0,0.3,0,0.2,0h0c0.1,0-0.3,0,0.2,0c0,0,0.1,0,0.1,0
	c0,0,0.1,0,0.1-0.1l0.1-0.1c0.1-0.1,0.1-0.1,0.1-0.1s0,0,0,0l0,0.1c-0.1,0.2-0.3,0.4-0.4,0.7c-0.3,0.5-0.5,1.1-0.8,1.7
	c-0.5,1.1-0.9,2.3-1.3,3.4c-1.6,4.4-2.9,8.2-3.9,10.8c-0.5,1.3-1,2.3-1.4,3c-0.2,0.4-0.4,0.6-0.6,0.9c0,0-0.1,0.1-0.1,0.1
	s-0.1,0.1-0.1,0.1c0,0-0.1,0.1-0.1,0.1c0,0,0,0-0.1,0c-0.1,0-0.1,0-0.1,0c-0.4,0.2-0.9,0.1-1.1-0.3
	C167.1,270.2,167.3,269.7,167.6,269.5L167.6,269.5z"/>
<path d="M266.8,217.6c0,0,0,0.1-0.1,0.2c-0.1,0.1-0.2,0.3-0.3,0.5c-0.1,0.2-0.3,0.5-0.3,0.8c0,0.1,0,0.2-0.1,0.2c0,0.1,0,0.2,0,0.3
	c0,0.1,0,0.2,0,0.3c0,0.1,0,0.1,0,0.1c0,0.1,0,0.2,0,0.3c0,0.1,0,0.1,0,0.2c0,0.1,0,0.2,0,0.2c0,0.2,0,0.3,0.1,0.5
	c0.1,0.3,0.1,0.7,0.2,1.1c0.2,0.8,0.4,1.6,0.8,2.4c0.8,1.6,2,3.2,4,4c0.5,0.2,1,0.3,1.6,0.4c0.6,0.1,1.2,0.1,1.8,0.1h0.1
	c0.1,0,0,0,0,0h0.1l0.3,0c0.2,0,0.4,0,0.5,0c0.2,0,0.3,0,0.5-0.1c0.2,0,0.3-0.1,0.5-0.1c0.7-0.1,1.4-0.2,2.1-0.4
	c2.9-0.7,5.9-1.9,8.7-3.8c0.7-0.5,1.4-1,2-1.6c0.3-0.3,0.6-0.6,0.9-0.9c0.3-0.3,0.6-0.6,0.9-1c1.1-1.3,2.1-2.9,2.8-4.6
	c0.3-0.9,0.6-1.8,0.8-2.7c0-0.2,0.1-0.5,0.1-0.7l0.1-0.4l0.1-0.4c0-0.3,0.1-0.5,0.1-0.8c0-0.3,0.1-0.5,0.1-0.8
	c0.3-2.1,0.4-4.2,0.4-6.3c0-1.1-0.1-2.1-0.3-3.1c-0.1-0.5-0.2-1-0.4-1.5c-0.2-0.5-0.4-0.9-0.6-1.3c-0.3-0.4-0.5-0.7-0.9-0.9
	c-0.3-0.2-0.7-0.4-1-0.4c-0.1,0-0.2,0-0.3,0c0,0,0.1,0,0,0c0,0-0.1,0-0.1,0s0.1,0,0.1,0c-0.1,0-0.2,0.1-0.3,0.2
	c-0.3,0.3-0.6,0.6-0.9,1.1c-0.6,0.9-1.1,1.9-1.6,3c-0.5,1.1-1,2.2-1.4,3.4c-0.9,2.3-1.7,4.7-2.4,7.1c-1.5,4.9-3,10-4.3,15.2
	c-0.7,2.6-1.3,5.3-2,8c-0.6,2.7-1.3,5.4-1.9,8.1c-1.4,5.6-3.4,11-5.9,16.3c-1.2,2.6-2.6,5.3-4,7.9c-1.4,2.6-3,5.2-4.6,7.7
	c-3.2,5-6.8,9.9-10.6,14.5c-1.9,2.3-4,4.6-6,6.8c-2.1,2.2-4.3,4.4-6.7,6.3c-0.6,0.5-1.2,1-1.9,1.4s-1.4,0.9-2.3,1.3
	c-0.1,0.1-0.2,0.1-0.4,0.1c-0.1,0.1-0.3,0.1-0.4,0.1l-0.2,0.1c0,0-0.3,0.1-0.3,0.1l-0.1,0c-0.1,0-0.1,0-0.2,0c-0.2,0-0.3,0-0.5,0
	c-0.1,0-0.3,0-0.4,0c-0.1,0-0.3,0-0.4-0.1c-0.1,0-0.3-0.1-0.4-0.1c-1.1-0.3-2.1-1-2.7-1.7c-0.7-0.7-1.2-1.5-1.6-2.3
	c-0.4-0.8-0.7-1.6-0.9-2.4c-0.5-1.6-0.8-3.2-0.9-4.8c-0.3-3.2-0.1-6.3,0.4-9.4c0.3-1.5,0.6-3.1,1-4.5c0.4-1.5,0.9-3,1.4-4.4
	c1.1-2.9,2.4-5.6,3.9-8.2c0.4-0.6,0.8-1.3,1.2-1.9l0.1-0.3l0.2-0.3l0.3-0.4l0.6-0.9c0.4-0.6,0.9-1.2,1.3-1.8
	c0.4-0.6,0.9-1.2,1.3-1.8c0.5-0.6,0.9-1.2,1.4-1.7l0.7-0.8l0.8-0.8c0.5-0.6,1-1.1,1.5-1.6c0.5-0.5,1.1-1,1.6-1.5
	c2.2-1.9,4.6-3.6,7.3-4.8c1.3-0.6,2.7-1.1,4.1-1.4c1.4-0.3,2.8-0.5,4.2-0.6c0.7,0,1.4-0.1,2.1-0.1s1.4,0,2.1,0l1,0.1
	c0.4,0,0.7,0.1,1.1,0.1s0.7,0.1,1.1,0.2c0.2,0,0.3,0.1,0.5,0.1l0.5,0.2c1.3,0.4,2.6,1,3.8,1.7c1.2,0.7,2.3,1.5,3.3,2.4
	c1.1,0.8,2,1.8,3,2.7c0.5,0.5,0.9,0.9,1.4,1.4l0.7,0.7l0.6,0.7c3.4,4,6.3,8.1,9,12.2c2.7,4.1,5.2,8.1,7.5,11.9
	c2.3,3.8,4.6,7.5,6.7,11c1.1,1.7,2.1,3.4,3.2,5c1.1,1.6,2.1,3.2,3.1,4.6c2.1,2.9,4.1,5.5,6.2,7.6c1.1,1,2.1,1.9,3.1,2.5
	c1,0.6,2.1,1,3,1.1c0.1,0,0.2,0,0.3,0h0.2h0c-0.1,0,0,0,0,0h0.1c0.3,0,0.6,0,0.9,0c0.2,0,0.3,0,0.4,0c0.1,0,0.3,0,0.4,0
	c0.1,0,0.3,0,0.4,0c0.1,0,0.3,0,0.4-0.1c1-0.1,1.9-0.3,2.8-0.6c0.9-0.2,1.6-0.6,2.3-0.9c0.3-0.2,0.7-0.3,1-0.5
	c0.1-0.1,0.3-0.2,0.4-0.3c0.1-0.1,0.3-0.2,0.4-0.3c1.1-0.7,1.9-1.3,2.4-1.8c0.3-0.2,0.5-0.4,0.6-0.5c0.1-0.1,0.2-0.2,0.2-0.2
	l0.1-0.1c0.4-0.3,0.9-0.3,1.2,0.1c0.2,0.3,0.3,0.6,0.1,0.9c0,0,0,0.1-0.1,0.3c-0.1,0.2-0.2,0.5-0.4,0.8c-0.4,0.7-1,1.7-2.1,2.9
	c-0.3,0.3-0.6,0.6-0.9,0.9c-0.3,0.3-0.7,0.6-1.1,0.9c-0.2,0.1-0.4,0.3-0.6,0.4c-0.2,0.1-0.4,0.3-0.7,0.4c-0.2,0.1-0.5,0.3-0.7,0.4
	c-0.3,0.1-0.5,0.2-0.8,0.4c-1.1,0.4-2.3,0.8-3.5,1.1c-0.2,0-0.3,0.1-0.5,0.1s-0.3,0.1-0.5,0.1c-0.2,0-0.4,0-0.5,0.1
	c-0.2,0-0.4,0-0.5,0c-0.3,0-0.6,0-0.9,0.1h-0.1c-0.1,0,0,0-0.1,0h-0.1l-0.3,0c-0.2,0-0.4,0-0.6,0c-1.7-0.2-3.3-0.9-4.8-1.8
	c-1.4-0.9-2.7-2-3.9-3.2c-2.4-2.4-4.5-5.3-6.5-8.4c-1-1.6-2-3.2-3-4.9c-1-1.7-2-3.5-3-5.3c-2-3.6-4-7.4-6.2-11.4
	c-2.1-4-4.4-8.1-6.8-12.2c-1.2-2.1-2.5-4.1-3.9-6.2c-0.7-1-1.4-2.1-2.1-3.1c-0.4-0.5-0.8-1-1.1-1.5c-0.4-0.5-0.8-1-1.2-1.5
	c-1.6-2-3.4-3.9-5.3-5.6c-2-1.7-4.2-3.1-6.7-4l-0.5-0.1c-0.2-0.1-0.3-0.1-0.5-0.1c-0.3-0.1-0.6-0.2-0.9-0.2c-0.3,0-0.6-0.1-0.9-0.1
	l-1-0.1c-0.7,0-1.4,0-2,0c-0.7,0-1.4,0-2,0.1c-2.7,0.1-5.4,0.8-7.8,2.1c-2.4,1.3-4.6,3-6.5,5c-0.5,0.5-0.9,1-1.4,1.6
	c-0.4,0.6-0.9,1.1-1.3,1.6l-0.6,0.8l-0.6,0.9c-0.4,0.6-0.8,1.2-1.2,1.8c-0.4,0.6-0.8,1.2-1.1,1.8c-0.4,0.6-0.7,1.2-1.1,1.8l-0.5,1
	l-0.3,0.5l-0.1,0.1l-0.1,0.1l-0.1,0.3c-0.3,0.6-0.6,1.3-0.9,1.9c-1.2,2.6-2.3,5.2-3.1,7.9c-0.4,1.4-0.8,2.7-1.1,4.1
	c-0.3,1.4-0.6,2.8-0.8,4.2c-0.4,2.8-0.6,5.6-0.5,8.4c0.1,1.4,0.3,2.8,0.6,4c0.2,0.6,0.4,1.3,0.6,1.8s0.5,1.1,0.8,1.5
	c0.3,0.4,0.6,0.6,0.9,0.8c0,0,0.1,0,0.1,0s0.1,0,0.1,0c0,0,0.1,0,0.1,0c0,0,0,0,0.1,0c0,0,0.1,0,0.1,0h0.1c0.1,0-0.1,0,0,0h0.1
	c0,0,0.1,0,0.2,0c0.1,0,0.1,0,0.2-0.1c0.5-0.2,1.1-0.5,1.7-0.8s1.2-0.8,1.8-1.2c1.2-0.8,2.3-1.8,3.4-2.7c1.1-1,2.2-2,3.3-3
	c2.1-2.1,4.1-4.3,6-6.5c3.8-4.5,7.3-9.3,10.6-14.2c3.2-4.9,6-10,8.5-15.2c2.4-5.2,4.4-10.5,5.7-15.9c0.6-2.7,1.3-5.5,1.9-8.2
	c0.6-2.7,1.3-5.3,2-8c1.3-5.3,2.7-10.4,4.2-15.4c0.8-2.5,1.6-4.9,2.4-7.3c0.4-1.2,0.9-2.4,1.4-3.5c0.5-1.2,1.1-2.3,1.8-3.4
	c0.4-0.6,0.8-1.1,1.4-1.6c0.3-0.3,0.7-0.5,1.2-0.7c0.1,0,0.3-0.1,0.5-0.1c0.1,0,0.1,0,0.1,0c0,0,0.2,0,0.2,0c0.2,0,0.4,0,0.6,0.1
	c0.8,0.1,1.6,0.4,2.3,0.9c0.6,0.4,1.1,1,1.6,1.6c0.8,1.2,1.3,2.4,1.6,3.6c0.3,1.2,0.5,2.4,0.7,3.6c0.3,2.4,0.2,4.7,0,6.9
	c0,0.3-0.1,0.6-0.1,0.8c0,0.3-0.1,0.5-0.1,0.8l-0.1,0.4l-0.1,0.4c-0.1,0.3-0.1,0.6-0.1,0.9c-0.3,1.1-0.5,2.2-0.9,3.3
	c-0.8,2.1-2,4-3.3,5.7c-0.3,0.4-0.7,0.8-1.1,1.2c-0.4,0.4-0.7,0.8-1.1,1.1c-0.8,0.7-1.6,1.3-2.4,1.9c-0.8,0.6-1.6,1.1-2.5,1.5
	c-0.8,0.4-1.7,0.8-2.5,1.2c-1.7,0.7-3.4,1.2-5,1.6c-0.8,0.2-1.6,0.3-2.4,0.4c-0.2,0-0.4,0.1-0.6,0.1c-0.2,0-0.4,0-0.6,0.1
	c-0.2,0-0.4,0-0.6,0h-0.3h-0.1h-0.1h-0.2c-0.8,0-1.6-0.1-2.4-0.2c-0.8-0.2-1.6-0.4-2.3-0.7c-1.4-0.6-2.6-1.6-3.6-2.7
	c-0.4-0.5-0.8-1.1-1.2-1.6c-0.3-0.5-0.6-1.1-0.8-1.6c-0.4-1.1-0.7-2.1-0.9-3c-0.1-0.5-0.2-0.9-0.2-1.4c0-0.2-0.1-0.4-0.1-0.6
	c0-0.1,0-0.2,0-0.3c0-0.1,0-0.2,0-0.3c0-0.1,0-0.2,0-0.3c0,0,0-0.1,0-0.1v-0.1v-0.1v-0.2c0-0.2,0.1-0.4,0.1-0.7
	c0.1-0.4,0.3-0.8,0.5-1.1c0.4-0.7,0.9-1.1,1.3-1.3c0.4-0.3,0.8-0.4,1-0.4c0.2-0.1,0.4-0.1,0.4-0.1c0.4-0.2,0.9,0,1.1,0.4
	C267.4,217,267.2,217.5,266.8,217.6z"/>
<path d="M313.4,252.5c1.1-1.6,1.9-3.4,2.4-5.3c0.3-0.9,0.5-1.9,0.6-2.8c0.1-0.9,0.1-1.8-0.1-2.7c-0.1-0.9-0.4-1.7-0.8-2.4l-0.2-0.3
	l-0.2-0.3c-0.1-0.2-0.3-0.3-0.4-0.5s-0.3-0.3-0.4-0.5l-0.2-0.2l-0.1-0.1l0,0c0,0-0.1-0.1,0.1,0l0,0l-0.1-0.1l-0.1-0.1c0,0,0,0-0.1,0
	c0,0-0.1,0-0.1-0.1c-0.1,0-0.1,0-0.1,0c-0.1,0-0.1,0-0.1,0c-0.2,0-0.5,0-0.8,0.2c-0.6,0.3-1.4,0.8-2,1.4c-1.3,1.3-2.5,2.9-3.6,4.5
	c-1.1,1.6-2.1,3.4-3,5.2c-0.9,1.8-1.8,3.6-2.5,5.5c-0.7,1.9-1.4,3.8-1.9,5.7c-0.3,0.9-0.4,1.9-0.5,2.8c0,0.2-0.1,0.5-0.1,0.7
	c0,0.1,0,0.2,0,0.3v0.2v0c0,0,0-0.1,0-0.1v0v0.1l0,0.4v0.2c0,0.1,0,0.1,0,0.2l0.1,0.6c0.1,0.8,0.4,1.6,0.9,2.3
	c0.4,0.6,1,1.1,1.6,1.3c0.6,0.2,1.4,0.2,2.2,0c0.8-0.2,1.6-0.6,2.3-1.1c0.8-0.5,1.5-1.1,2.2-1.8c0.3-0.3,0.7-0.7,1-1.1
	c0.3-0.4,0.7-0.7,1-1.1c0.3-0.4,0.6-0.8,0.9-1.2l0.9-1.2c0.6-0.8,1.1-1.6,1.6-2.5c1.1-1.7,2-3.5,3-5.3c0.4-0.9,0.9-1.8,1.3-2.7
	c0.4-0.9,0.9-1.8,1.3-2.8l1.2-2.8l1.1-2.8l-0.1,0.4l0,0c0-0.1,0-0.1,0-0.2s0-0.1,0,0c0,0.1,0.1,0.1,0.3,0.2s0.3,0.1,0.4,0
	c0.1-0.1,0.1-0.1,0.1,0c-0.1,0.1-0.2,0.2-0.3,0.3c-0.1,0.1-0.2,0.3-0.3,0.4c-0.3,0.6-0.7,1.3-0.9,2c-0.6,1.4-1,2.9-1.4,4.4
	c-0.4,1.5-0.6,3-0.8,4.5s-0.1,3,0.2,4.4c0.1,0.7,0.4,1.3,0.7,1.9c0.3,0.5,0.8,0.9,1.3,1.2c0.5,0.3,1.1,0.4,1.8,0.4h0.1h0
	c0,0-0.1,0,0,0h0.1l0.3,0l0.6,0l0.5-0.1c0.2,0,0.3,0,0.5-0.1c1.4-0.3,2.8-0.9,4-1.6c1.3-0.8,2.4-1.7,3.5-2.8c1.1-1.1,2.1-2.2,3-3.4
	c0.9-1.2,1.8-2.5,2.6-3.8c0.4-0.7,0.8-1.3,1.2-2c0.4-0.7,0.8-1.4,1.1-2c0.2-0.3,0.3-0.7,0.5-1l0.1-0.3l0.1-0.1l0-0.1v0
	c-0.7-0.6,1.4,3,1.9,0.8c0.1-0.1,0,0,0-0.1v0l0,0.1l-0.1,0.1l-0.1,0.3c-0.3,0.7-0.5,1.5-0.8,2.2c-0.5,1.5-1,3-1.4,4.5
	c-0.4,1.5-0.8,3-1,4.5c-0.1,0.8-0.2,1.5-0.2,2.2c0,0.4,0,0.7,0.1,1c0.1,0.3,0.2,0.5,0.2,0.5c0,0,0,0,0.1,0c0,0,0.1,0,0.1,0
	c0,0-0.1,0,0,0h0l0.1,0l0.1,0l0.1,0c0,0,0.1,0,0.1,0c0.1,0,0.1-0.1,0.2-0.1c0.1-0.1,0.3-0.1,0.5-0.2c0.6-0.3,1.3-0.7,1.9-1.1
	c1.2-0.9,2.4-1.9,3.5-3c1.1-1.1,2.1-2.3,3.2-3.4c1-1.2,2-2.3,3-3.5c0.5-0.6,1-1.2,1.4-1.8c0.5-0.6,0.9-1.2,1.3-1.8
	c0.1-0.1,0.1-0.3,0.2-0.4c0,0,0-0.1,0.1-0.1c0,0,0,0,0,0.1v0c0,0,0,0,0,0.1v0c0,0,0,0.1,0,0.2c0.2,0.2-0.5,0.1,0.9,1.3
	c2.2,0.1,1.6-0.7,1.9-0.5c0.1-0.1,0.1-0.1,0.1-0.1l0,0c0,0,0,0,0,0c0,0,0,0.1-0.1,0.2c-0.1,0.1-0.1,0.3-0.2,0.5
	c-0.2,0.7-0.4,1.4-0.5,2.2c-0.3,1.5-0.6,3-0.7,4.5s-0.2,3-0.1,4.5c0.1,1.5,0.4,2.9,0.9,4.1c0.3,0.6,0.7,1.1,1.1,1.5
	c0.5,0.4,1,0.7,1.6,0.9c0.3,0.1,0.6,0.1,1,0.2c0.1,0,0.2,0,0.3,0h0.3h0.1h0.1h0.1h0.1l0.1,0c0.3-0.1,0.6-0.2,0.9-0.3
	c0.3-0.1,0.6-0.3,0.9-0.5c1.2-0.8,2.3-1.9,3.3-3c1-1.2,1.9-2.4,2.8-3.7c1.8-2.6,3.3-5.3,4.8-8.1c0.7-1.4,1.4-2.8,2.1-4.2l1-2.1
	l0.5-1.1c0.1-0.2,0.2-0.4,0.3-0.6c0.1-0.1,0.1-0.2,0.2-0.3c0-0.1,0.1-0.1,0.1-0.2c0-0.1,0.1-0.1,0.2-0.2c0.3-0.3,0.8-0.4,1.2,0
	s0.4,0.8,0,1.2c0,0,0,0,0,0c0,0,0,0.1-0.1,0.1c0,0.1-0.1,0.1-0.1,0.2l-0.3,0.5c-0.2,0.3-0.4,0.7-0.5,1l-1.1,2.1
	c-0.7,1.4-1.4,2.8-2.1,4.2c-0.7,1.4-1.5,2.8-2.3,4.2c-0.8,1.4-1.6,2.8-2.5,4.1c-0.9,1.3-1.8,2.7-2.8,3.9c-1.1,1.3-2.2,2.4-3.6,3.5
	c-0.4,0.3-0.8,0.5-1.1,0.7c-0.4,0.2-0.8,0.4-1.3,0.5c-0.2,0.1-0.6,0.1-0.8,0.1h-0.1h-0.1h0c0,0,0,0-0.1,0s-0.2,0-0.3,0
	c-0.4,0-0.9-0.1-1.4-0.2c-0.9-0.2-1.8-0.6-2.6-1.2c-0.8-0.6-1.4-1.4-1.8-2.1c-0.9-1.6-1.3-3.3-1.5-5c-0.2-1.7-0.2-3.3-0.1-5
	c0.1-1.6,0.3-3.3,0.6-4.9c0.1-0.8,0.3-1.6,0.5-2.4c0.1-0.2,0.1-0.4,0.2-0.6c0-0.1,0.1-0.2,0.1-0.4c0-0.1,0-0.1,0.1-0.1l0.1-0.1
	c0,0,0.1-0.1,0.1-0.2c0.2,0.1-0.3-0.7,1.9-0.6c1.4,1.2,0.7,1.1,0.9,1.3c0,0.1,0,0.3,0,0.3c0,0.2-0.1,0.5-0.1,0.7
	c-0.1,0.1-0.1,0.3-0.2,0.4c-0.1,0.2-0.2,0.5-0.4,0.6c-0.5,0.8-1,1.4-1.5,2.1c-0.5,0.6-1,1.3-1.6,1.9c-1.1,1.2-2.2,2.4-3.4,3.5
	c-1.2,1.1-2.4,2.1-3.7,3.1c-1.3,1-2.6,2-3.9,2.9c-0.7,0.4-1.4,0.9-2.2,1.3c-0.2,0.1-0.4,0.2-0.6,0.3l-0.4,0.1c-0.1,0-0.1,0-0.2,0.1
	l-0.1,0l-0.1,0h-0.1h0c0.1,0-0.1,0-0.1,0c-0.2,0-0.3,0-0.5,0c-0.3,0-0.7-0.2-1-0.4c-0.3-0.2-0.5-0.5-0.6-0.8
	c-0.1-0.3-0.2-0.5-0.3-0.8c-0.1-0.5-0.1-0.9-0.1-1.4c0-0.9,0.1-1.7,0.2-2.5c0.5-3.2,1.3-6.3,2.3-9.4c0.2-0.8,0.5-1.5,0.8-2.3
	l0.1-0.3l0.1-0.1l0-0.1l0,0c0-0.1,0,0,0.1-0.1c0.5-2.2,2.6,1.4,1.9,0.8l0,0.1l0,0.1l-0.1,0.2l-0.1,0.3c-0.2,0.4-0.3,0.8-0.5,1.1
	c-0.7,1.5-1.4,2.9-2.3,4.3c-0.8,1.4-1.7,2.8-2.7,4c-1,1.3-2.1,2.5-3.3,3.7c-1.2,1.1-2.5,2.2-3.9,3.1c-1.4,0.9-3,1.5-4.8,1.9
	c-0.2,0.1-0.4,0.1-0.7,0.1l-0.7,0.1l-0.6,0h-0.3h-0.1h-0.1h-0.1h-0.1c-0.9,0-1.9-0.2-2.8-0.7c-0.9-0.4-1.6-1.2-2.1-2
	c-0.5-0.8-0.8-1.7-0.9-2.6c-0.3-1.7-0.3-3.4-0.1-5c0.2-1.6,0.5-3.2,0.9-4.8c0.4-1.6,0.9-3.1,1.6-4.6c0.3-0.8,0.7-1.5,1.1-2.2
	c0.1-0.2,0.2-0.4,0.4-0.6c0.1-0.2,0.3-0.4,0.5-0.6c0.1-0.1,0.3-0.2,0.6-0.3c0.2-0.1,0.4-0.1,0.7,0c0.3,0.1,0.4,0.3,0.5,0.4
	c0.2,0.3,0.2,0.4,0.3,0.6c0,0.2,0.1,0.3,0.1,0.4l0,0l0,0.2l-0.1,0.2l-1,2.9c-0.3,1-0.7,1.9-1.1,2.9c-0.4,1-0.8,1.9-1.2,2.9
	c-0.4,0.9-0.8,1.9-1.3,2.9c-0.9,1.9-1.8,3.8-2.9,5.6c-0.5,0.9-1.1,1.8-1.6,2.7l-0.9,1.3c-0.3,0.4-0.6,0.9-0.9,1.3
	c-1.3,1.7-2.8,3.3-4.6,4.6c-0.9,0.6-2,1.2-3.1,1.6c-0.3,0.1-0.6,0.2-0.9,0.2c-0.3,0-0.6,0.1-1,0.1c-0.3,0-0.7,0-1-0.1l-0.5-0.1
	c-0.2,0-0.3-0.1-0.5-0.1c-1.3-0.4-2.4-1.3-3.2-2.3c-0.8-1.1-1.2-2.3-1.4-3.4c-0.1-0.3-0.1-0.6-0.1-0.9c0-0.1,0-0.1,0-0.2v-0.2l0-0.4
	v-0.1v-0.1v-0.1v-0.2c0-0.1,0-0.3,0-0.4c0-0.3,0-0.6,0.1-0.9c0.1-1.1,0.3-2.2,0.6-3.2c0.5-2.1,1.2-4.1,1.9-6.1
	c0.8-2,1.6-3.9,2.6-5.8c0.9-1.9,2-3.7,3.2-5.5c0.6-0.9,1.2-1.8,1.9-2.6c0.7-0.8,1.4-1.7,2.3-2.4c0.8-0.8,1.8-1.5,3-2
	c0.6-0.3,1.4-0.4,2.2-0.4c0.2,0,0.4,0.1,0.6,0.1c0.2,0.1,0.4,0.1,0.6,0.2c0.2,0.1,0.4,0.2,0.6,0.3c0.1,0.1,0.2,0.1,0.3,0.2l0.1,0.1
	l0.1,0.1l0,0c0.1,0.1,0.1,0.1,0.1,0.1l0,0l0.2,0.2l0.3,0.3c0.2,0.2,0.4,0.4,0.6,0.7c0.2,0.3,0.4,0.5,0.5,0.8l0.3,0.4l0.2,0.4
	c0.6,1.1,0.9,2.3,1,3.5c0.1,1.2,0,2.3-0.2,3.4c-0.2,1.1-0.5,2.2-0.9,3.2c-0.4,1-0.9,2-1.4,2.9c-0.3,0.5-0.6,0.9-0.9,1.4
	c-0.2,0.2-0.3,0.4-0.5,0.6l-0.3,0.3l-0.3,0.3c-0.3,0.3-0.8,0.4-1.2,0.1C313.2,253.3,313.1,252.9,313.4,252.5L313.4,252.5z"/>
<path d="M376.6,260.9c0,0,0-0.3-0.1-0.8c-0.1-0.5-0.1-1.3-0.2-2.3c-0.1-2-0.2-5,0.3-8.9c0.2-1.9,0.6-4,1.3-6.3
	c0.4-1.1,0.8-2.3,1.5-3.5c0.6-1.2,1.4-2.3,2.5-3.3s2.5-1.8,4.1-2.2c0.2,0,0.4-0.1,0.6-0.1c0.2,0,0.3-0.1,0.5-0.1
	c0.4-0.1,0.8-0.1,1.2-0.1c0.8-0.1,1.6-0.1,2.6,0.2c0.5,0.1,1,0.3,1.4,0.7c0.2,0.2,0.4,0.4,0.6,0.7c0.2,0.3,0.3,0.5,0.4,0.8
	c0.2,0.6,0.2,1.1,0.1,1.6s-0.1,0.9-0.3,1.3c-0.2,0.8-0.6,1.6-0.9,2.3c-0.3,0.8-0.7,1.5-1.1,2.2c-1.6,2.9-3.4,5.7-5.2,8.7
	c-0.9,1.5-1.7,3-2.4,4.6c-0.4,0.8-0.7,1.6-0.9,2.4c-0.3,0.8-0.4,1.7-0.4,2.5c0,0.8,0.2,1.6,0.7,2.3c0.5,0.6,1.3,1,2.1,1.3
	c0.4,0.1,0.9,0.2,1.3,0.3c0.2,0,0.4,0.1,0.7,0.1c0.3,0,0.5,0.1,0.7,0.1c0.9,0.1,1.9,0,2.8-0.1c0.9-0.1,1.9-0.3,2.8-0.6
	c0.9-0.3,1.8-0.6,2.7-1c0.4-0.2,0.9-0.4,1.3-0.6c0.4-0.2,0.8-0.5,1.3-0.8c0.8-0.5,1.6-1.1,2.4-1.7c1.5-1.2,3-2.6,4.3-4.1
	c0.6-0.8,1.3-1.5,1.8-2.3c0.6-0.8,1.1-1.6,1.5-2.5c0.4-0.9,0.7-1.6,0.7-2.4c0-0.8-0.1-1.7-0.5-2.4c-0.4-0.7-0.9-1.3-1.4-1.4
	c-0.3-0.1-0.6-0.1-0.9-0.1c-0.3,0.1-0.7,0.2-1,0.4c-0.7,0.4-1.4,1.1-2,1.8c-0.6,0.8-1.1,1.6-1.7,2.5c-0.5,0.9-1,1.8-1.4,2.8
	c-0.2,0.5-0.4,0.9-0.6,1.4s-0.4,0.9-0.5,1.4c-0.3,0.9-0.5,1.9-0.5,2.9c0,1,0.1,1.9,0.5,2.8c0.4,0.8,0.9,1.6,1.7,2.1
	c0.8,0.5,1.7,0.8,2.7,0.9c0.5,0.1,1,0.1,1.4,0c0.3,0,0.5-0.1,0.7-0.1c0.3-0.1,0.5-0.1,0.7-0.2c1-0.3,2.1-0.6,3.1-0.9
	c2-0.6,4-1.4,5.9-2.3c1.9-0.9,3.7-2,5.3-3.3c1.6-1.3,3-2.8,4-4.4c0.5-0.8,0.9-1.7,1.2-2.6c0-0.1,0.1-0.2,0.1-0.3
	c0-0.1,0.1-0.2,0-0.1c0,0,0,0.1,0,0.2c0,0.1,0.1,0.6,0.8,0.8c0.6,0.1,0.7-0.1,0.8-0.1c0.1-0.1,0.1-0.1,0.1-0.1c0,0-0.1,0.1-0.1,0.1
	c-0.3,0.3-0.5,0.8-0.7,1.2c-0.4,0.9-0.8,1.8-1.1,2.7c-0.3,0.9-0.4,1.9-0.3,2.7c0.1,0.9,0.5,1.6,1.2,2c0.3,0.2,0.8,0.4,1.2,0.5
	c0.5,0.1,0.9,0.2,1.4,0.2c0.9,0,1.9-0.2,2.7-0.5c0.9-0.4,1.7-0.8,2.5-1.4c1.6-1.1,2.9-2.6,4.2-4.1c0.7-0.8,1.3-1.5,2-2.2
	c0.7-0.7,1.4-1.5,2.4-2.1c0.3-0.2,0.5-0.3,0.8-0.4c0.2-0.1,0.3-0.1,0.5-0.2c0,0,0.2-0.1,0.2-0.1l0.1,0c0,0,0.2,0,0.4,0
	c0.2,0,0.3,0,0.4,0c0.1,0,0.3,0.1,0.4,0.1c0.1,0,0.3,0.1,0.4,0.1c0.1,0.1,0.2,0.1,0.3,0.2c0.4,0.3,0.7,0.5,0.9,0.8
	c0.4,0.5,0.7,1,1,1.5c0.3,0.4,0.4,0.9,0.7,1.3c0.8,1.7,1.6,3.1,2.7,4.3c0.5,0.6,1.1,1.1,1.8,1.6c0.6,0.4,1.3,0.8,2,1.1
	c1.4,0.6,3,1,4.6,1.2c0.8,0.1,1.6,0.1,2.4,0.2c0.8,0,1.6,0,2.4,0c0.2,0,0.4,0,0.6,0c0.2,0,0.4,0,0.6-0.1c0.4,0,0.8-0.1,1.2-0.1
	c0.8-0.1,1.6-0.1,2.4-0.3c6.3-0.8,12.1-2.1,17.1-3.5c5-1.4,9.4-2.8,12.9-4s6.3-2.3,8.2-3c0.9-0.4,1.6-0.7,2.1-0.9
	c0.5-0.2,0.7-0.3,0.7-0.3l0,0c0.4-0.2,0.9,0,1.1,0.4c0.2,0.4,0,0.9-0.4,1.1h0c0,0-0.3,0.1-0.8,0.3c-0.5,0.2-1.2,0.5-2.2,0.8
	c-1.9,0.7-4.7,1.7-8.2,3c-3.6,1.2-7.9,2.7-12.9,4.2c-5,1.5-10.8,3-17.2,4.3c-0.8,0.2-1.6,0.3-2.4,0.4c-0.4,0.1-0.8,0.1-1.2,0.2
	c-0.2,0-0.4,0.1-0.6,0.1c-0.2,0-0.4,0.1-0.7,0.1c-1.7,0.2-3.5,0.3-5.4,0.2c-1.9-0.1-3.8-0.4-5.7-1.2c-1.9-0.7-3.7-1.9-5.1-3.5
	c-1.4-1.6-2.4-3.5-3.1-5.3c-0.2-0.4-0.3-0.9-0.5-1.3c-0.2-0.4-0.3-0.8-0.5-1c-0.1-0.1-0.1-0.2-0.1-0.2l0,0h0h0c0,0,0,0,0,0
	s0.1,0,0,0H445c-0.1,0,0.1,0,0,0c-0.1,0-0.1,0-0.2,0c-0.1,0-0.3,0.1-0.5,0.2c-0.7,0.3-1.4,0.9-2.2,1.4c-0.8,0.6-1.5,1.3-2.2,1.9
	c-1.5,1.3-3,2.7-4.7,3.9c-0.9,0.6-1.8,1.1-2.8,1.5c-1,0.4-2.1,0.6-3.2,0.7c-0.6,0-1.1-0.1-1.7-0.2c-0.6-0.1-1.1-0.3-1.7-0.6
	s-1-0.8-1.4-1.3c-0.4-0.5-0.6-1.1-0.7-1.7c-0.3-1.2-0.1-2.4,0.1-3.5c0.2-1.1,0.6-2.2,1.1-3.2c0.3-0.5,0.5-1,0.9-1.5
	c0.1-0.1,0.2-0.3,0.4-0.5c0.1-0.1,0.1-0.1,0.3-0.2c0.1-0.1,0.3-0.3,0.9-0.1c0.8,0.3,0.9,0.9,0.9,1c0,0.2,0,0.3,0,0.4
	c0,0.3-0.1,0.4-0.1,0.6c0,0.1-0.1,0.3-0.1,0.4c-0.3,1.1-0.9,2.1-1.5,3.1c-0.6,1-1.4,1.8-2.1,2.6c-0.8,0.8-1.7,1.5-2.6,2.1
	c-1.8,1.3-3.8,2.3-5.8,3.1c-2,0.9-4,1.6-6.1,2.3c-1,0.3-2.1,0.7-3.1,1c-0.3,0.1-0.5,0.2-0.8,0.2c-0.3,0.1-0.6,0.1-0.9,0.2
	c-0.6,0.1-1.2,0.1-1.8,0.1c-1.2-0.1-2.4-0.4-3.4-1c-1.1-0.6-1.9-1.6-2.5-2.7c-0.6-1.1-0.8-2.3-0.8-3.5c0-1.2,0.1-2.3,0.4-3.5
	c0.1-0.6,0.3-1.1,0.5-1.6c0.2-0.5,0.4-1,0.6-1.6c0.4-1,0.9-2,1.4-3s1.1-1.9,1.8-2.9c0.7-0.9,1.5-1.8,2.6-2.5
	c0.6-0.3,1.2-0.6,1.9-0.8c0.7-0.1,1.5-0.1,2.2,0.1c0.7,0.3,1.3,0.7,1.8,1.2c0.5,0.5,0.9,1.1,1.1,1.6c0.6,1.2,0.8,2.4,0.7,3.7
	c-0.1,0.6-0.2,1.2-0.4,1.8l-0.1,0.3c0,0.1-0.1,0.1-0.1,0.2l0,0.1c0,0-0.1,0.1-0.1,0.1l-0.1,0.2c-0.1,0.3-0.3,0.5-0.4,0.8
	c-0.6,1-1.2,1.8-1.9,2.7c-0.7,0.8-1.4,1.6-2.1,2.4c-1.5,1.5-3.1,2.8-4.8,4c-1.7,1.2-3.5,2.2-5.4,3c-0.9,0.4-1.9,0.7-2.9,1
	c-1,0.3-2,0.4-3,0.6c-1,0.1-2,0.1-3,0.1c-1-0.1-2-0.2-3-0.4c-0.5-0.1-1-0.3-1.4-0.6c-0.4-0.3-0.9-0.6-1.2-1
	c-0.3-0.4-0.6-0.9-0.8-1.4c-0.2-0.5-0.2-1-0.3-1.5c0-1,0.2-2,0.4-2.9c0.3-0.9,0.6-1.8,0.9-2.6c0.7-1.7,1.5-3.3,2.3-4.9
	c1.6-3.1,3.3-6,4.7-8.9c0.4-0.7,0.7-1.4,1-2.1c0.3-0.7,0.5-1.4,0.7-2.1c0.1-0.3,0.1-0.6,0.1-0.9c0-0.3,0-0.5-0.1-0.7
	s-0.1-0.3-0.3-0.3c-0.1-0.1-0.3-0.2-0.6-0.2c-0.5-0.1-1.1-0.1-1.8-0.1c-0.3,0-0.6,0.1-0.9,0.1c-0.1,0-0.3,0.1-0.5,0.1
	c-0.1,0-0.3,0.1-0.4,0.1c-1.1,0.3-2.1,0.9-3,1.6c-0.8,0.8-1.5,1.7-2,2.7c-0.5,1-0.9,2-1.3,3c-0.7,2-1.1,4-1.4,5.8
	c-0.3,1.8-0.4,3.5-0.5,4.9c-0.1,1.4-0.1,2.6-0.2,3.6s0,1.8,0,2.3c0,0.5,0,0.8,0,0.8v0c0,0.5-0.4,0.8-0.8,0.8
	C377,261.7,376.6,261.3,376.6,260.9z"/>
<path d="M507.8,259.5c-1.2,0.3-4.3,3.1-0.3,3.9C511.6,264.3,510.8,258.7,507.8,259.5z"/>
</svg>
